<svg width="988" height="1006" viewBox="0 0 988 1006" fill="none" xmlns="http://www.w3.org/2000/svg">
<circle cx="501" cy="567" r="438.5" stroke="black"/>
<path d="M501 0C430.307 0 373 57.3071 373 128C373 198.693 430.307 256 501 256C571.693 256 629 198.693 629 128C629 57.3071 571.693 0 501 0Z" fill="black"/>
<path d="M519.192 62.6406C526.936 62.6406 534.504 65.8673 541.896 72.3206C549.288 78.6566 555.214 86.8702 559.672 96.9606C564.13 107.051 566.36 117.142 566.36 127.233C566.36 137.206 564.13 147.179 559.672 157.153C555.33 167.009 549.17 175.281 541.192 181.969C533.33 188.657 524.882 192.001 515.848 192.001H444.04V184.081H456.536C459.822 183.611 462.226 181.91 463.752 178.977V78.4806C463.4 76.486 462.462 74.7846 460.936 73.3766C459.528 71.8513 457.71 70.9126 455.48 70.5606H444.04V62.6406H519.192ZM508.632 183.201C516.024 183.201 522.712 180.443 528.696 174.929C534.68 169.414 539.198 162.491 542.248 154.161C545.416 145.713 547 136.502 547 126.529C547 116.438 545.416 107.169 542.248 98.7206C539.08 90.155 534.446 83.3502 528.344 78.3046C522.36 73.2593 515.438 70.7366 507.576 70.7366H487.688C484.52 71.206 482.114 72.966 480.472 76.0166V175.985C481.058 179.387 482.878 181.793 485.928 183.201H508.632Z" fill="white"/>
<path d="M501 64V184" stroke="white" stroke-width="2"/>
<path d="M564.851 677.703C626.073 642.356 647.049 564.073 611.702 502.851C576.356 441.629 498.073 420.654 436.851 456C375.629 491.346 354.654 569.629 390 630.851C425.346 692.073 503.629 713.049 564.851 677.703Z" fill="url(#paint0_linear)"/>
<path d="M482.659 632.211C474.915 632.211 467.347 628.985 459.955 622.531C452.563 616.195 446.638 607.981 442.179 597.891C437.721 587.801 435.491 577.709 435.491 567.619C435.491 557.645 437.721 547.673 442.179 537.699C446.521 527.843 452.681 519.571 460.659 512.883C468.521 506.195 476.969 502.851 486.003 502.851H557.811V510.771H545.315C542.03 511.24 539.625 512.942 538.099 515.875V616.371C538.451 618.365 539.39 620.067 540.915 621.475C542.323 623.001 544.142 623.939 546.371 624.291H557.811V632.211H482.659ZM493.219 511.651C485.827 511.651 479.139 514.408 473.155 519.923C467.171 525.437 462.654 532.361 459.603 540.691C456.435 549.139 454.851 558.349 454.851 568.323C454.851 578.413 456.435 587.683 459.603 596.131C462.771 604.697 467.406 611.501 473.507 616.547C479.491 621.593 486.414 624.115 494.275 624.115H514.163C517.331 623.645 519.737 621.885 521.379 618.835V518.867C520.793 515.464 518.974 513.059 515.923 511.651H493.219Z" fill="white"/>
<path d="M500.851 630.851L500.851 510.851" stroke="white" stroke-width="2"/>
<path d="M128 662C57.3071 662 0 719.307 0 790C0 860.693 57.3071 918 128 918C198.693 918 256 860.693 256 790C256 719.307 198.693 662 128 662Z" fill="#003399"/>
<path d="M171.774 847.895C167.173 849.975 161.437 851.676 154.566 853C147.759 854.261 141.046 854.891 134.428 854.891C118.356 854.891 105.623 850.857 96.2319 842.789C86.8404 834.658 80.9786 822.872 78.6465 807.429H56.8065V797.029H77.6065C77.5434 796.084 77.5119 795.138 77.5119 794.193C77.5119 793.247 77.5119 792.27 77.5119 791.262C77.5119 789.497 77.5434 787.732 77.6065 785.967C77.7325 784.202 77.8586 782.501 77.9847 780.862H58.2247V770.462H79.4028C82.5543 754.2 89.3616 741.941 99.8247 733.684C110.288 725.364 123.083 721.204 138.21 721.204C143.694 721.204 149.587 721.771 155.89 722.906C162.193 723.977 168.023 725.584 173.381 727.727C173.633 732.77 173.57 738.159 173.192 743.895C172.877 749.63 172.309 755.303 171.49 760.913H160.05L156.079 742.193C155.701 740.554 155.165 739.262 154.472 738.316C153.779 737.308 152.833 736.394 151.636 735.575C149.682 734.314 147.097 733.274 143.883 732.455C140.668 731.572 137.359 731.131 133.956 731.131C125.383 731.131 118.166 734.346 112.305 740.775C106.443 747.141 102.566 757.036 100.676 770.462H144.166V780.862H99.7301C99.6671 782.185 99.604 783.541 99.541 784.927C99.541 786.314 99.541 787.732 99.541 789.182C99.541 790.568 99.541 791.924 99.541 793.247C99.604 794.508 99.6671 795.768 99.7301 797.029H142.654V807.429H100.676C102.314 819.405 105.813 828.67 111.17 835.225C116.528 841.718 123.871 844.964 133.199 844.964C137.107 844.964 140.668 844.396 143.883 843.262C147.16 842.064 149.713 840.772 151.541 839.385C152.739 838.503 153.684 837.589 154.377 836.644C155.134 835.698 155.733 834.532 156.174 833.145L162.225 815.655L173.759 816.695C174.011 821.422 173.98 826.527 173.665 832.011C173.349 837.432 172.719 842.726 171.774 847.895Z" fill="white"/>
<path d="M860 695C930.693 695 988 752.307 988 823C988 893.693 930.693 951 860 951C789.307 951 732 893.693 732 823C732 752.307 789.307 695 860 695Z" fill="#DF3951"/>
<path d="M869.024 874.653C869.818 878.053 872.424 879.753 876.844 879.753H887.894V887.403H833.834V879.753L845.904 879.583C849.078 879.129 851.401 877.486 852.874 874.653V853.233H818.704V845.583H852.874V832.663L851.344 830.283H818.704V822.633H846.414L816.324 776.563C814.738 773.729 811.224 772.086 805.784 771.633L792.694 771.463V763.813H853.044V771.463H844.204C839.784 772.256 837.291 773.956 836.724 776.563L863.584 820.083L891.124 776.563C890.558 773.956 888.008 772.256 883.474 771.463H874.294V763.813H926.314V771.803H910.504V771.973C906.764 772.426 904.101 773.956 902.514 776.563L872.254 822.633H903.024V830.283H869.024V845.583H903.024V853.233H869.024V874.653Z" fill="white"/>
<defs>
<linearGradient id="paint0_linear" x1="436.851" y1="456" x2="564.851" y2="677.702" gradientUnits="userSpaceOnUse">
<stop stop-color="#5142FC"/>
<stop offset="0.0001" stop-color="#0164D0"/>
<stop offset="0.822917" stop-color="#4441F3" stop-opacity="0.71"/>
</linearGradient>
</defs>
</svg>
