<svg width="900" height="900" viewBox="0 0 900 900" fill="none" xmlns="http://www.w3.org/2000/svg">
<path d="M450 0C201.47 0 0 201.47 0 450C0 698.529 201.47 900 450 900C698.529 900 900 698.529 900 450C900 201.47 698.529 0 450 0Z" fill="black"/>
<path d="M513.956 220.221C541.181 220.221 567.788 231.564 593.775 254.252C619.763 276.527 640.595 305.403 656.269 340.877C671.943 376.351 679.781 411.828 679.781 447.302C679.781 482.365 671.943 517.426 656.269 552.489C641.005 587.139 619.349 616.221 591.3 639.733C563.662 663.246 533.962 675.002 502.2 675.002H249.75V647.158H293.681C305.232 645.507 313.687 639.528 319.05 629.214V275.908C317.813 268.896 314.514 262.914 309.15 257.964C304.2 252.602 297.807 249.302 289.969 248.064H249.75V220.221H513.956ZM476.831 644.064C502.819 644.064 526.331 634.37 547.369 614.983C568.406 595.597 584.289 571.257 595.013 541.971C606.15 512.271 611.719 479.89 611.719 444.827C611.719 409.353 606.15 376.764 595.013 347.064C583.875 316.951 567.582 293.028 546.131 275.289C525.094 257.552 500.757 248.683 473.119 248.683H403.2C392.063 250.333 383.605 256.521 377.831 267.246V618.696C379.893 630.657 386.289 639.114 397.013 644.064H476.831Z" fill="white"/>
<path d="M450 225V646.875" stroke="white" stroke-width="2"/>
</svg>
